<svg width="101" height="100" viewBox="0 0 101 100" fill="none" xmlns="http://www.w3.org/2000/svg">
<path d="M50.5 84.375H19.25C18.4212 84.375 17.6263 84.0458 17.0403 83.4597C16.4542 82.8737 16.125 82.0788 16.125 81.25V50C16.125 49.1712 16.4542 48.3763 17.0403 47.7903C17.6263 47.2042 18.4212 46.875 19.25 46.875H50.5M50.5 84.375V46.875M50.5 84.375H81.75C82.5788 84.375 83.3737 84.0458 83.9597 83.4597C84.5458 82.8737 84.875 82.0788 84.875 81.25V50C84.875 49.1712 84.5458 48.3763 83.9597 47.7903C83.3737 47.2042 82.5788 46.875 81.75 46.875H50.5M66.125 50V62.5M53.625 18.75V31.25M34.875 50V62.5M28.625 18.75V46.875H72.375V18.75C72.375 17.9212 72.0458 17.1263 71.4597 16.5403C70.8737 15.9542 70.0788 15.625 69.25 15.625H31.75C30.9212 15.625 30.1263 15.9542 29.5403 16.5403C28.9542 17.1263 28.625 17.9212 28.625 18.75Z" stroke="#66BFA7" stroke-width="3"/>
</svg>
