<svg width="27" height="27" viewBox="0 0 27 27" fill="none" xmlns="http://www.w3.org/2000/svg">
<rect x="0.796875" y="0.722656" width="25.5583" height="25.5583" rx="12.7791" fill="#66BFA7"/>
<path d="M6.44238 6.7334L7.19629 6.88379C8.04872 7.05432 8.69084 7.76195 8.77734 8.62695L8.83789 9.24023H18.6025C20.0296 9.24038 21.0766 10.5814 20.7305 11.9658L19.9229 15.1953C19.5827 16.5559 18.3604 17.5105 16.958 17.5107H10.4893C9.48809 17.5107 8.64468 16.7626 8.52539 15.7686L7.81348 9.83789L7.70312 8.73438C7.66382 8.3413 7.37266 8.02001 6.98535 7.94238L6.23047 7.79102C5.93833 7.73259 5.74919 7.44838 5.80762 7.15625C5.86609 6.86417 6.15028 6.67498 6.44238 6.7334ZM11.5674 15.5537C11.2299 15.5537 10.9563 15.8276 10.9561 16.165C10.9561 16.5027 11.2297 16.7764 11.5674 16.7764H14.4912C14.8287 16.7762 15.1025 16.5025 15.1025 16.165C15.1023 15.8277 14.8285 15.5539 14.4912 15.5537H11.5674Z" fill="white"/>
<path d="M6.44238 6.7334L6.37799 7.05537L6.37815 7.0554L6.44238 6.7334ZM7.19629 6.88379L7.2607 6.56182L7.26052 6.56179L7.19629 6.88379ZM8.77734 8.62695L9.1041 8.59469L9.10406 8.59428L8.77734 8.62695ZM8.83789 9.24023L8.51113 9.27249L8.54037 9.56858H8.83789V9.24023ZM18.6025 9.24023L18.6026 8.91189H18.6025V9.24023ZM20.7305 11.9658L21.049 12.0455L21.049 12.0455L20.7305 11.9658ZM19.9229 15.1953L19.6043 15.1157L19.6043 15.1157L19.9229 15.1953ZM16.958 17.5107V17.8391H16.9581L16.958 17.5107ZM10.4893 17.5107L10.4892 17.8391H10.4893V17.5107ZM8.52539 15.7686L8.8514 15.7294L8.8514 15.7294L8.52539 15.7686ZM7.81348 9.83789L7.4867 9.87057L7.48747 9.87702L7.81348 9.83789ZM7.70312 8.73438L8.02984 8.7017V8.7017L7.70312 8.73438ZM6.98535 7.94238L6.9208 8.26432L6.92083 8.26433L6.98535 7.94238ZM6.23047 7.79102L6.29502 7.46908L6.29486 7.46905L6.23047 7.79102ZM5.80762 7.15625L5.48566 7.0918L5.48565 7.09186L5.80762 7.15625ZM10.9561 16.165L10.6277 16.1648V16.165H10.9561ZM14.4912 16.7764V17.1047H14.4914L14.4912 16.7764ZM15.1025 16.165H15.4309V16.1648L15.1025 16.165ZM14.4912 15.5537L14.4914 15.2254H14.4912V15.5537ZM6.44238 6.7334L6.37815 7.0554L7.13206 7.20579L7.19629 6.88379L7.26052 6.56179L6.50662 6.4114L6.44238 6.7334ZM7.19629 6.88379L7.13188 7.20575C7.84293 7.348 8.3785 7.93834 8.45063 8.65963L8.77734 8.62695L9.10406 8.59428C9.00319 7.58556 8.25452 6.76064 7.2607 6.56182L7.19629 6.88379ZM8.77734 8.62695L8.45059 8.65921L8.51113 9.27249L8.83789 9.24023L9.16465 9.20797L9.1041 8.59469L8.77734 8.62695ZM8.83789 9.24023V9.56858H18.6025V9.24023V8.91189H8.83789V9.24023ZM18.6025 9.24023L18.6025 9.56858C19.816 9.5687 20.7062 10.709 20.4119 11.8862L20.7305 11.9658L21.049 12.0455C21.4469 10.4538 20.2432 8.91205 18.6026 8.91189L18.6025 9.24023ZM20.7305 11.9658L20.4119 11.8862L19.6043 15.1157L19.9229 15.1953L20.2414 15.275L21.049 12.0455L20.7305 11.9658ZM19.9229 15.1953L19.6043 15.1157C19.3007 16.3301 18.2097 17.1822 16.9579 17.1824L16.958 17.5107L16.9581 17.8391C18.5112 17.8388 19.8647 16.7817 20.2414 15.2749L19.9229 15.1953ZM16.958 17.5107V17.1824H10.4893V17.5107V17.8391H16.958V17.5107ZM10.4893 17.5107L10.4893 17.1824C9.65426 17.1823 8.95088 16.5584 8.8514 15.7294L8.52539 15.7686L8.19938 15.8077C8.33848 16.9668 9.32192 17.839 10.4892 17.8391L10.4893 17.5107ZM8.52539 15.7686L8.8514 15.7294L8.13948 9.79876L7.81348 9.83789L7.48747 9.87702L8.19939 15.8077L8.52539 15.7686ZM7.81348 9.83789L8.14019 9.80522L8.02984 8.7017L7.70312 8.73438L7.37641 8.76705L7.48676 9.87056L7.81348 9.83789ZM7.70312 8.73438L8.02984 8.7017C7.97618 8.16511 7.57868 7.72642 7.04988 7.62044L6.98535 7.94238L6.92083 8.26433C7.16665 8.31359 7.35145 8.51749 7.37641 8.76705L7.70312 8.73438ZM6.98535 7.94238L7.04991 7.62045L6.29502 7.46908L6.23047 7.79102L6.16591 8.11295L6.9208 8.26432L6.98535 7.94238ZM6.23047 7.79102L6.29486 7.46905C6.18084 7.44624 6.10666 7.33526 6.12959 7.22064L5.80762 7.15625L5.48565 7.09186C5.39172 7.56151 5.69582 8.01894 6.16608 8.11298L6.23047 7.79102ZM5.80762 7.15625L6.12957 7.2207C6.15241 7.10663 6.26346 7.03246 6.37799 7.05537L6.44238 6.7334L6.50678 6.41143C6.03709 6.31749 5.57976 6.62171 5.48566 7.0918L5.80762 7.15625ZM11.5674 15.5537V15.2254C11.0483 15.2254 10.628 15.6464 10.6277 16.1648L10.9561 16.165L11.2844 16.1652C11.2845 16.0088 11.4114 15.8821 11.5674 15.8821V15.5537ZM10.9561 16.165H10.6277C10.6277 16.684 11.0484 17.1047 11.5674 17.1047V16.7764V16.448C11.4111 16.448 11.2844 16.3213 11.2844 16.165H10.9561ZM11.5674 16.7764V17.1047H14.4912V16.7764V16.448H11.5674V16.7764ZM14.4912 16.7764L14.4914 17.1047C15.0098 17.1044 15.4309 16.6841 15.4309 16.165H15.1025H14.7742C14.7742 16.321 14.6475 16.4479 14.491 16.448L14.4912 16.7764ZM15.1025 16.165L15.4309 16.1648C15.4306 15.6463 15.0099 15.2257 14.4914 15.2254L14.4912 15.5537L14.491 15.8821C14.6472 15.8822 14.7741 16.0091 14.7742 16.1652L15.1025 16.165ZM14.4912 15.5537V15.2254H11.5674V15.5537V15.8821H14.4912V15.5537Z" fill="white"/>
<path d="M11.0127 18.7383C11.4271 18.7384 11.7627 19.0748 11.7627 19.4893C11.7626 19.9036 11.427 20.2391 11.0127 20.2393C10.5983 20.2393 10.2619 19.9036 10.2617 19.4893C10.2617 19.0748 10.5982 18.7383 11.0127 18.7383Z" fill="white" stroke="white" stroke-width="0.65669"/>
<path d="M17.4854 18.7383C17.8998 18.7384 18.2354 19.0748 18.2354 19.4893C18.2352 19.9036 17.8997 20.2391 17.4854 20.2393C17.0709 20.2393 16.7345 19.9036 16.7344 19.4893C16.7344 19.0748 17.0708 18.7383 17.4854 18.7383Z" fill="white" stroke="white" stroke-width="0.65669"/>
</svg>
