<svg width="27" height="27" viewBox="0 0 27 27" fill="none" xmlns="http://www.w3.org/2000/svg">
<rect x="0.794922" y="0.720703" width="25.5583" height="25.5583" rx="12.7791" fill="#66BFA7"/>
<path d="M6.44043 6.73145L7.19434 6.88184C8.04677 7.05237 8.68889 7.76 8.77539 8.625L8.83594 9.23828H18.6006C20.0276 9.23842 21.0746 10.5794 20.7285 11.9639L19.9209 15.1934C19.5807 16.5539 18.3585 17.5085 16.9561 17.5088H10.4873C9.48614 17.5087 8.64272 16.7606 8.52344 15.7666L7.81152 9.83594L7.70117 8.73242C7.66186 8.33935 7.37071 8.01806 6.9834 7.94043L6.22852 7.78906C5.93638 7.73064 5.74724 7.44643 5.80566 7.1543C5.86413 6.86222 6.14832 6.67303 6.44043 6.73145ZM11.5654 15.5518C11.2279 15.5518 10.9543 15.8256 10.9541 16.1631C10.9541 16.5007 11.2278 16.7744 11.5654 16.7744H14.4893C14.8267 16.7742 15.1006 16.5006 15.1006 16.1631C15.1004 15.8258 14.8266 15.552 14.4893 15.5518H11.5654Z" fill="white"/>
<path d="M6.44043 6.73145L6.37604 7.05341L6.3762 7.05345L6.44043 6.73145ZM7.19434 6.88184L7.25875 6.55987L7.25857 6.55983L7.19434 6.88184ZM8.77539 8.625L9.10215 8.59274L9.10211 8.59233L8.77539 8.625ZM8.83594 9.23828L8.50918 9.27054L8.53841 9.56663H8.83594V9.23828ZM18.6006 9.23828L18.6006 8.90994H18.6006V9.23828ZM20.7285 11.9639L21.0471 12.0435L21.0471 12.0435L20.7285 11.9639ZM19.9209 15.1934L19.6024 15.1137L19.6024 15.1137L19.9209 15.1934ZM16.9561 17.5088V17.8371H16.9561L16.9561 17.5088ZM10.4873 17.5088L10.4873 17.8371H10.4873V17.5088ZM8.52344 15.7666L8.84944 15.7275L8.84944 15.7275L8.52344 15.7666ZM7.81152 9.83594L7.48474 9.86862L7.48552 9.87507L7.81152 9.83594ZM7.70117 8.73242L8.02789 8.69975V8.69975L7.70117 8.73242ZM6.9834 7.94043L6.91884 8.26237L6.91887 8.26237L6.9834 7.94043ZM6.22852 7.78906L6.29307 7.46713L6.29291 7.46709L6.22852 7.78906ZM5.80566 7.1543L5.48371 7.08985L5.4837 7.0899L5.80566 7.1543ZM10.9541 16.1631L10.6258 16.1629V16.1631H10.9541ZM14.4893 16.7744V17.1028H14.4895L14.4893 16.7744ZM15.1006 16.1631H15.4289V16.1629L15.1006 16.1631ZM14.4893 15.5518L14.4895 15.2234H14.4893V15.5518ZM6.44043 6.73145L6.3762 7.05345L7.1301 7.20384L7.19434 6.88184L7.25857 6.55983L6.50466 6.40944L6.44043 6.73145ZM7.19434 6.88184L7.12993 7.2038C7.84097 7.34605 8.37655 7.93639 8.44867 8.65767L8.77539 8.625L9.10211 8.59233C9.00123 7.5836 8.25257 6.75869 7.25875 6.55987L7.19434 6.88184ZM8.77539 8.625L8.44863 8.65726L8.50918 9.27054L8.83594 9.23828L9.16269 9.20602L9.10215 8.59274L8.77539 8.625ZM8.83594 9.23828V9.56663H18.6006V9.23828V8.90994H8.83594V9.23828ZM18.6006 9.23828L18.6006 9.56663C19.814 9.56675 20.7043 10.707 20.41 11.8842L20.7285 11.9639L21.0471 12.0435C21.445 10.4518 20.2412 8.9101 18.6006 8.90994L18.6006 9.23828ZM20.7285 11.9639L20.41 11.8842L19.6024 15.1137L19.9209 15.1934L20.2394 15.273L21.0471 12.0435L20.7285 11.9639ZM19.9209 15.1934L19.6024 15.1137C19.2987 16.3282 18.2078 17.1802 16.956 17.1804L16.9561 17.5088L16.9561 17.8371C18.5092 17.8369 19.8628 16.7797 20.2394 15.273L19.9209 15.1934ZM16.9561 17.5088V17.1804H10.4873V17.5088V17.8371H16.9561V17.5088ZM10.4873 17.5088L10.4873 17.1804C9.65231 17.1804 8.94892 16.5564 8.84944 15.7275L8.52344 15.7666L8.19743 15.8057C8.33653 16.9648 9.31997 17.837 10.4873 17.8371L10.4873 17.5088ZM8.52344 15.7666L8.84944 15.7275L8.13753 9.7968L7.81152 9.83594L7.48552 9.87507L8.19743 15.8057L8.52344 15.7666ZM7.81152 9.83594L8.13824 9.80327L8.02789 8.69975L7.70117 8.73242L7.37446 8.76509L7.48481 9.86861L7.81152 9.83594ZM7.70117 8.73242L8.02789 8.69975C7.97423 8.16316 7.57673 7.72447 7.04792 7.61849L6.9834 7.94043L6.91887 8.26237C7.16469 8.31164 7.3495 8.51553 7.37446 8.76509L7.70117 8.73242ZM6.9834 7.94043L7.04795 7.61849L6.29307 7.46713L6.22852 7.78906L6.16396 8.111L6.91884 8.26237L6.9834 7.94043ZM6.22852 7.78906L6.29291 7.46709C6.17889 7.44429 6.10471 7.3333 6.12763 7.21869L5.80566 7.1543L5.4837 7.0899C5.38976 7.55955 5.69387 8.01698 6.16412 8.11103L6.22852 7.78906ZM5.80566 7.1543L6.12762 7.21875C6.15046 7.10468 6.26151 7.03051 6.37604 7.05341L6.44043 6.73145L6.50482 6.40948C6.03514 6.31554 5.57781 6.61976 5.48371 7.08985L5.80566 7.1543ZM11.5654 15.5518V15.2234C11.0464 15.2234 10.6261 15.6444 10.6258 16.1629L10.9541 16.1631L11.2824 16.1633C11.2825 16.0068 11.4095 15.8801 11.5654 15.8801V15.5518ZM10.9541 16.1631H10.6258C10.6258 16.6821 11.0465 17.1028 11.5654 17.1028V16.7744V16.4461C11.4091 16.4461 11.2824 16.3194 11.2824 16.1631H10.9541ZM11.5654 16.7744V17.1028H14.4893V16.7744V16.4461H11.5654V16.7744ZM14.4893 16.7744L14.4895 17.1028C15.0079 17.1024 15.4289 16.6821 15.4289 16.1631H15.1006H14.7722C14.7722 16.319 14.6455 16.446 14.4891 16.4461L14.4893 16.7744ZM15.1006 16.1631L15.4289 16.1629C15.4286 15.6444 15.008 15.2237 14.4895 15.2234L14.4893 15.5518L14.4891 15.8801C14.6452 15.8802 14.7721 16.0071 14.7722 16.1633L15.1006 16.1631ZM14.4893 15.5518V15.2234H11.5654V15.5518V15.8801H14.4893V15.5518Z" fill="white"/>
<path d="M11.0088 18.7363C11.4232 18.7365 11.7588 19.0729 11.7588 19.4873C11.7587 19.9016 11.4231 20.2372 11.0088 20.2373C10.5944 20.2373 10.2579 19.9017 10.2578 19.4873C10.2578 19.0728 10.5943 18.7363 11.0088 18.7363Z" fill="white" stroke="white" stroke-width="0.65669"/>
<path d="M17.4834 18.7363C17.8978 18.7365 18.2334 19.0729 18.2334 19.4873C18.2333 19.9016 17.8977 20.2372 17.4834 20.2373C17.069 20.2373 16.7326 19.9017 16.7324 19.4873C16.7324 19.0728 17.0689 18.7363 17.4834 18.7363Z" fill="white" stroke="white" stroke-width="0.65669"/>
</svg>
