<svg width="23" height="23" viewBox="0 0 23 23" fill="none" xmlns="http://www.w3.org/2000/svg">
<path d="M3.27051 21.0605L3.52038 21.7677L3.52045 21.7677L3.27051 21.0605ZM1.73926 19.5293L2.44641 19.7792L2.44644 19.7791L1.73926 19.5293ZM2.66852 16.8984L1.96133 16.6486L2.66852 16.8984ZM2.60227 16.0628L3.26926 15.7198L2.60227 16.0628ZM6.65953 20.2511L6.29585 20.9071L6.65953 20.2511ZM5.79421 20.1685L5.54427 19.4614L5.79421 20.1685ZM11.5 1.5V2.25C16.6086 2.25 20.75 6.39137 20.75 11.5H21.5H22.25C22.25 5.56294 17.4371 0.75 11.5 0.75V1.5ZM21.5 11.5H20.75C20.75 16.6086 16.6086 20.75 11.5 20.75V21.5V22.25C17.4371 22.25 22.25 17.4371 22.25 11.5H21.5ZM11.5 21.5V20.75C9.87451 20.75 8.34932 20.3305 7.02321 19.5952L6.65953 20.2511L6.29585 20.9071C7.83835 21.7623 9.61305 22.25 11.5 22.25V21.5ZM5.79421 20.1685L5.54427 19.4614L3.02057 20.3534L3.27051 21.0605L3.52045 21.7677L6.04415 20.8756L5.79421 20.1685ZM3.27051 21.0605L3.02063 20.3534C2.66396 20.4794 2.32037 20.1358 2.44641 19.7792L1.73926 19.5293L1.03211 19.2794C0.48596 20.825 1.97479 22.3138 3.52038 21.7677L3.27051 21.0605ZM1.73926 19.5293L2.44644 19.7791L3.3757 17.1481L2.66852 16.8984L1.96133 16.6486L1.03207 19.2795L1.73926 19.5293ZM2.60227 16.0628L3.26926 15.7198C2.61877 14.4548 2.25 13.0216 2.25 11.5H1.5H0.75C0.75 13.2669 1.17882 14.9346 1.93528 16.4058L2.60227 16.0628ZM1.5 11.5H2.25C2.25 6.39137 6.39137 2.25 11.5 2.25V1.5V0.75C5.56294 0.75 0.75 5.56294 0.75 11.5H1.5ZM2.66852 16.8984L3.3757 17.1481C3.54742 16.662 3.48834 16.1459 3.26926 15.7198L2.60227 16.0628L1.93528 16.4058C1.98254 16.4977 1.9836 16.5855 1.96133 16.6486L2.66852 16.8984ZM6.65953 20.2511L7.02321 19.5952C6.58754 19.3537 6.05016 19.2826 5.54427 19.4614L5.79421 20.1685L6.04415 20.8756C6.10966 20.8525 6.2015 20.8547 6.29585 20.9071L6.65953 20.2511Z" fill="#66BFA7"/>
<circle cx="6.55078" cy="11.5508" r="0.75" fill="#66BFA7" stroke="#66BFA7"/>
<circle cx="11.5508" cy="11.5508" r="0.75" fill="#66BFA7" stroke="#66BFA7"/>
<circle cx="16.5508" cy="11.5508" r="0.75" fill="#66BFA7" stroke="#66BFA7"/>
</svg>
