<svg width="18" height="18" viewBox="0 0 18 18" fill="none" xmlns="http://www.w3.org/2000/svg">
<path d="M14.909 15.9467C13.1501 17.7055 8.64567 16.0528 4.84807 12.2552C1.05048 8.45766 -0.602223 3.95324 1.15666 2.19435L2.31475 1.03626C3.11424 0.236766 4.43161 0.257899 5.25718 1.08346L7.05096 2.87724C7.87652 3.70281 7.89766 5.02018 7.09816 5.81967L6.84942 6.06842C6.41776 6.50008 6.37553 7.19643 6.77662 7.68248C7.1635 8.1513 7.58059 8.61828 8.03281 9.07051C8.48504 9.52274 8.95202 9.93983 9.42084 10.3267C9.90689 10.7278 10.6032 10.6856 11.0349 10.2539L11.2836 10.0052C12.0831 9.20567 13.4005 9.2268 14.2261 10.0524L16.0199 11.8461C16.8454 12.6717 16.8666 13.9891 16.0671 14.7886L14.909 15.9467Z" fill="#66BFA7" stroke="white" stroke-width="0.9"/>
</svg>
