<svg width="19" height="25" viewBox="0 0 19 25" fill="none" xmlns="http://www.w3.org/2000/svg">
<path d="M9.38477 1.26367C13.1894 1.26367 16.2742 4.34775 16.2744 8.15234V10.5201C16.2744 11.7654 17.0769 12.8547 17.7144 13.9245C18.0497 14.487 18.2422 15.1444 18.2422 15.8467C18.2421 17.6607 16.9463 19.2176 15.1494 19.4668C13.3649 19.7142 11.1349 19.9629 9.38477 19.9629C7.63465 19.9629 5.40454 19.7142 3.62012 19.4668C1.82339 19.2175 0.527409 17.6607 0.527344 15.8467C0.527344 15.1443 0.720028 14.4869 1.05543 13.9244C1.69336 12.8546 2.49609 11.7652 2.49609 10.5197V8.15234C2.49628 4.34778 5.58017 1.26372 9.38477 1.26367Z" fill="#66BFA7"/>
<path d="M9.38477 1.26367V0.807775H9.38476L9.38477 1.26367ZM16.2744 8.15234H16.7303V8.15232L16.2744 8.15234ZM18.2422 15.8467L18.6981 15.8467V15.8467H18.2422ZM15.1494 19.4668L15.212 19.9184L15.212 19.9184L15.1494 19.4668ZM9.38477 19.9629L9.38476 20.4188H9.38477V19.9629ZM3.62012 19.4668L3.55746 19.9184L3.5575 19.9184L3.62012 19.4668ZM0.527344 15.8467H0.0714466V15.8467L0.527344 15.8467ZM2.49609 8.15234L2.0402 8.15232V8.15234H2.49609ZM17.7144 13.9245L18.1061 13.6911L17.7144 13.9245ZM9.38477 1.26367V1.71957C12.9377 1.71957 15.8183 4.5996 15.8185 8.15237L16.2744 8.15234L16.7303 8.15232C16.7301 4.0959 13.4411 0.807775 9.38477 0.807775V1.26367ZM16.2744 8.15234H15.8185V10.5201H16.2744H16.7303V8.15234H16.2744ZM17.7144 13.9245L17.3228 14.1579C17.6171 14.6517 17.7863 15.2288 17.7863 15.8467H18.2422H18.6981C18.6981 15.06 18.4822 14.3222 18.1061 13.6911L17.7144 13.9245ZM18.2422 15.8467L17.7863 15.8467C17.7862 17.444 16.6476 18.7987 15.0868 19.0152L15.1494 19.4668L15.212 19.9184C17.2449 19.6364 18.698 17.8775 18.6981 15.8467L18.2422 15.8467ZM15.1494 19.4668L15.0868 19.0152C13.3061 19.2621 11.1019 19.507 9.38477 19.507V19.9629V20.4188C11.1679 20.4188 13.4238 20.1663 15.212 19.9184L15.1494 19.4668ZM9.38477 19.9629L9.38477 19.507C7.66768 19.507 5.46341 19.2621 3.68273 19.0152L3.62012 19.4668L3.5575 19.9184C5.34568 20.1663 7.60163 20.4188 9.38476 20.4188L9.38477 19.9629ZM3.62012 19.4668L3.68278 19.0152C2.12198 18.7987 0.983298 17.4439 0.983241 15.8467L0.527344 15.8467L0.0714466 15.8467C0.0715198 17.8774 1.52479 19.6363 3.55746 19.9184L3.62012 19.4668ZM0.527344 15.8467H0.983241C0.983241 15.2288 1.15253 14.6517 1.447 14.1579L1.05543 13.9244L0.663868 13.6909C0.287529 14.322 0.0714466 15.0599 0.0714466 15.8467H0.527344ZM2.49609 10.5197H2.95199V8.15234H2.49609H2.0402V10.5197H2.49609ZM2.49609 8.15234L2.95199 8.15237C2.95217 4.59956 5.83197 1.71961 9.38477 1.71957L9.38477 1.26367L9.38476 0.807775C5.32837 0.807826 2.0404 4.09601 2.0402 8.15232L2.49609 8.15234ZM1.05543 13.9244L1.447 14.1579C1.74947 13.6507 2.13251 13.0733 2.42288 12.4916C2.71924 11.8979 2.95199 11.2414 2.95199 10.5197H2.49609H2.0402C2.0402 11.0436 1.87158 11.5545 1.60709 12.0843C1.33661 12.6262 0.999317 13.1284 0.663868 13.6909L1.05543 13.9244ZM16.2744 10.5201H15.8185C15.8185 11.2416 16.0512 11.8981 16.3474 12.4917C16.6377 13.0733 17.0205 13.6507 17.3228 14.1579L17.7144 13.9245L18.1061 13.6911C17.7708 13.1285 17.4337 12.6264 17.1633 12.0846C16.8989 11.5547 16.7303 11.0439 16.7303 10.5201H16.2744Z" fill="#66BFA7"/>
<path d="M11.8457 22.5801C11.3168 23.3756 10.4123 23.8999 9.38531 23.8999C8.35836 23.8999 7.45386 23.3756 6.92492 22.5801" stroke="#66BFA7" stroke-width="0.911794" stroke-linecap="round"/>
</svg>
