<svg width="17" height="15" viewBox="0 0 17 15" fill="none" xmlns="http://www.w3.org/2000/svg">
<path d="M0.5 6.46516C0.5 4.71709 1.91709 3.3 3.66516 3.3C4.17162 3.3 4.62935 2.99817 4.82886 2.53266L4.98 2.18C5.41679 1.16081 6.41894 0.5 7.52779 0.5H8.5H9.47221C10.5811 0.5 11.5832 1.16081 12.02 2.18L12.1711 2.53266C12.3706 2.99817 12.8284 3.3 13.3348 3.3C15.0829 3.3 16.5 4.71709 16.5 6.46516V9.5C16.5 12.2614 14.2614 14.5 11.5 14.5H5.5C2.73858 14.5 0.5 12.2614 0.5 9.5V6.46516Z" stroke="black" stroke-opacity="0.4"/>
<circle cx="2.4" cy="2.4" r="2.4" transform="matrix(-1 0 0 1 10.8984 5.69922)" stroke="black" stroke-opacity="0.4"/>
</svg>
