<svg width="37" height="36" viewBox="0 0 37 36" fill="none" xmlns="http://www.w3.org/2000/svg">
<path d="M17.42 0.690722C17.7194 -0.230588 19.0228 -0.230588 19.3222 0.690722L22.9736 11.9288C23.1075 12.3408 23.4915 12.6198 23.9247 12.6198H35.7411C36.7099 12.6198 37.1126 13.8594 36.3289 14.4288L26.7692 21.3744C26.4187 21.629 26.2721 22.0804 26.4059 22.4924L30.0574 33.7305C30.3568 34.6518 29.3023 35.4179 28.5186 34.8485L18.9589 27.903C18.6084 27.6483 18.1338 27.6483 17.7833 27.903L8.22361 34.8485C7.4399 35.4179 6.38542 34.6518 6.68477 33.7305L10.3362 22.4924C10.4701 22.0804 10.3235 21.629 9.97298 21.3744L0.413276 14.4288C-0.370438 13.8594 0.0323379 12.6198 1.00106 12.6198H12.8175C13.2507 12.6198 13.6347 12.3408 13.7686 11.9288L17.42 0.690722Z" fill="#FFC71F"/>
</svg>
