<svg width="55" height="62" viewBox="0 0 55 62" fill="none" xmlns="http://www.w3.org/2000/svg">
<path fill-rule="evenodd" clip-rule="evenodd" d="M9.16667 18.3333C9.16667 13.471 11.0982 8.80788 14.5364 5.36971C17.9745 1.93154 22.6377 0 27.5 0C32.3623 0 37.0255 1.93154 40.4636 5.36971C43.9018 8.80788 45.8333 13.471 45.8333 18.3333H48.8889C50.5097 18.3333 52.064 18.9772 53.2101 20.1232C54.3562 21.2693 55 22.8237 55 24.4444V55C55 56.6208 54.3562 58.1752 53.2101 59.3212C52.064 60.4673 50.5097 61.1111 48.8889 61.1111H6.11111C4.49034 61.1111 2.93596 60.4673 1.7899 59.3212C0.643847 58.1752 0 56.6208 0 55V24.4444C0 22.8237 0.643847 21.2693 1.7899 20.1232C2.93596 18.9772 4.49034 18.3333 6.11111 18.3333H9.16667ZM27.5 6.11111C30.7415 6.11111 33.8503 7.39881 36.1424 9.69092C38.4345 11.983 39.7222 15.0918 39.7222 18.3333H15.2778C15.2778 15.0918 16.5655 11.983 18.8576 9.69092C21.1497 7.39881 24.2585 6.11111 27.5 6.11111ZM33.6111 36.6667C33.6111 37.7394 33.3287 38.7932 32.7923 39.7221C32.256 40.6511 31.4845 41.4225 30.5556 41.9589V45.8333C30.5556 46.6437 30.2336 47.4209 29.6606 47.9939C29.0876 48.567 28.3104 48.8889 27.5 48.8889C26.6896 48.8889 25.9124 48.567 25.3394 47.9939C24.7664 47.4209 24.4444 46.6437 24.4444 45.8333V41.9589C23.2795 41.2862 22.369 40.248 21.8543 39.0051C21.3395 37.7623 21.2492 36.3843 21.5974 35.085C21.9456 33.7856 22.7127 32.6374 23.78 31.8185C24.8472 30.9995 26.1548 30.5556 27.5 30.5556C29.1208 30.5556 30.6752 31.1994 31.8212 32.3455C32.9673 33.4915 33.6111 35.0459 33.6111 36.6667Z" fill="#66BFA7"/>
</svg>
