<svg width="23" height="21" viewBox="0 0 23 21" fill="none" xmlns="http://www.w3.org/2000/svg">
<path d="M14.9551 1.21484C16.0848 0.895331 17.2857 0.933025 18.3926 1.32422C19.4996 1.71556 20.4587 2.44074 21.1367 3.39941C21.8147 4.35808 22.1786 5.50356 22.1787 6.67773C22.1787 10.4006 19.4926 13.608 16.8916 15.8506C15.2846 17.2242 13.5391 18.4265 11.6846 19.4414L11.6426 19.4648C11.5987 19.488 11.5496 19.4999 11.5 19.5C11.4517 19.5001 11.4044 19.4876 11.3613 19.4658L11.3467 19.459L11.3203 19.4453L11.3174 19.4443L11.2383 19.4033H11.2393L10.8916 19.21C9.19513 18.2452 7.59419 17.1213 6.11133 15.8525H6.1123C3.51179 13.6096 0.822266 10.4016 0.822266 6.67773L0.826172 6.45801C0.868756 5.36116 1.22864 4.29818 1.86426 3.39941C2.54226 2.44074 3.50134 1.71557 4.6084 1.32422C5.7153 0.933021 6.91621 0.895334 8.0459 1.21484C9.17576 1.53445 10.179 2.19612 10.917 3.10938L11.501 3.83105L12.084 3.10938C12.822 2.19611 13.8252 1.53445 14.9551 1.21484Z" stroke="#8F8F8F" stroke-width="1.5"/>
</svg>
