<svg width="60" height="54" viewBox="0 0 60 54" fill="none" xmlns="http://www.w3.org/2000/svg">
<path d="M5.38667 53.3333C3.85111 53.3333 2.57 52.82 1.54333 51.7933C0.516667 50.7667 0.00222222 49.4844 0 47.9467V5.38667C0 3.85111 0.514445 2.57 1.54333 1.54333C2.57222 0.516666 3.85222 0.00222222 5.38333 0H54.6167C56.15 0 57.43 0.514444 58.4567 1.54333C59.4833 2.57222 59.9978 3.85333 60 5.38667V47.95C60 49.4833 59.4856 50.7644 58.4567 51.7933C57.4278 52.8222 56.1478 53.3356 54.6167 53.3333H5.38667ZM5.38667 50H54.6167C55.1278 50 55.5978 49.7867 56.0267 49.36C56.4556 48.9333 56.6689 48.4622 56.6667 47.9467V5.38667C56.6667 4.87333 56.4533 4.40222 56.0267 3.97333C55.6 3.54444 55.13 3.33111 54.6167 3.33333H5.38333C4.87222 3.33333 4.40222 3.54667 3.97333 3.97333C3.54444 4.4 3.33111 4.87111 3.33333 5.38667V47.95C3.33333 48.4611 3.54667 48.9311 3.97333 49.36C4.4 49.7889 4.87 50.0022 5.38333 50M20 41.6667C20.4756 41.6667 20.8722 41.5078 21.19 41.19C21.5078 40.8722 21.6667 40.4756 21.6667 40C21.6667 39.5244 21.5078 39.1278 21.19 38.81C20.8722 38.4922 20.4756 38.3333 20 38.3333H10C9.52667 38.3333 9.13 38.4922 8.81 38.81C8.49 39.1278 8.33111 39.5244 8.33333 40C8.33556 40.4756 8.49444 40.8722 8.81 41.19C9.12556 41.5078 9.52222 41.6667 10 41.6667H20ZM38.5 29.6233L34.93 26.05C34.6056 25.7256 34.2122 25.5567 33.75 25.5433C33.2878 25.53 32.8944 25.7056 32.57 26.07C32.2589 26.3944 32.1111 26.7878 32.1267 27.25C32.1422 27.7122 32.3122 28.1056 32.6367 28.43L36.6167 32.41C37.1544 32.9478 37.7822 33.2167 38.5 33.2167C39.2178 33.2167 39.8467 32.9478 40.3867 32.41L51.45 21.3433C51.7744 21.0211 51.9478 20.6389 51.97 20.1967C51.99 19.7567 51.8167 19.3533 51.45 18.9867C51.0811 18.62 50.6844 18.4367 50.26 18.4367C49.8355 18.4367 49.4389 18.62 49.07 18.9867L38.5 29.6233ZM20 28.3333C20.4756 28.3333 20.8722 28.1744 21.19 27.8567C21.5078 27.5389 21.6667 27.1422 21.6667 26.6667C21.6667 26.1911 21.5078 25.7944 21.19 25.4767C20.8722 25.1589 20.4756 25 20 25H10C9.52667 25 9.13 25.1589 8.81 25.4767C8.49 25.7944 8.33111 26.1911 8.33333 26.6667C8.33556 27.1422 8.49444 27.5389 8.81 27.8567C9.12556 28.1744 9.52222 28.3333 10 28.3333H20ZM20 15C20.4756 15 20.8722 14.8411 21.19 14.5233C21.5078 14.2056 21.6667 13.8089 21.6667 13.3333C21.6667 12.8578 21.5078 12.4611 21.19 12.1433C20.8722 11.8256 20.4756 11.6667 20 11.6667H10C9.52667 11.6667 9.13 11.8256 8.81 12.1433C8.49 12.4611 8.33111 12.8578 8.33333 13.3333C8.33556 13.8089 8.49444 14.2056 8.81 14.5233C9.12556 14.8411 9.52222 15 10 15H20Z" fill="#66BFA7"/>
</svg>
