<svg width="86" height="9" viewBox="0 0 86 9" fill="none" xmlns="http://www.w3.org/2000/svg">
<path d="M4.50426 8.99964C3.88494 8.99964 3.30256 8.88317 2.7571 8.65021C2.21449 8.41726 1.7358 8.09482 1.32102 7.68288C0.909091 7.26811 0.585227 6.78942 0.349432 6.2468C0.116477 5.70419 0.00142047 5.1218 0.0042614 4.49964C0.00710228 3.87749 0.125 3.2951 0.357955 2.75249C0.59375 2.20987 0.917614 1.7326 1.32955 1.32067C1.74148 0.905895 2.21875 0.582031 2.76136 0.349077C3.30398 0.116122 3.88494 -0.000355244 4.50426 -0.000355244C5.12642 -0.000355244 5.70881 0.116122 6.25142 0.349077C6.79688 0.582031 7.27415 0.905895 7.68324 1.32067C8.09517 1.7326 8.41761 2.20987 8.65057 2.75249C8.88352 3.2951 9.00142 3.87749 9.00426 4.49964C9.0071 5.1218 8.89205 5.70419 8.65909 6.2468C8.42614 6.78942 8.10369 7.26811 7.69176 7.68288C7.27983 8.09482 6.80114 8.41726 6.25568 8.65021C5.71023 8.88317 5.12642 8.99964 4.50426 8.99964ZM15.4847 8.99964C14.8654 8.99964 14.283 8.88317 13.7376 8.65021C13.195 8.41726 12.7163 8.09482 12.3015 7.68288C11.8896 7.26811 11.5657 6.78942 11.3299 6.2468C11.0969 5.70419 10.9819 5.1218 10.9847 4.49964C10.9876 3.87749 11.1055 3.2951 11.3384 2.75249C11.5742 2.20987 11.8981 1.7326 12.31 1.32067C12.7219 0.905895 13.1992 0.582031 13.7418 0.349077C14.2844 0.116122 14.8654 -0.000355244 15.4847 -0.000355244C16.1069 -0.000355244 16.6893 0.116122 17.2319 0.349077C17.7773 0.582031 18.2546 0.905895 18.6637 1.32067C19.0756 1.7326 19.3981 2.20987 19.631 2.75249C19.864 3.2951 19.9819 3.87749 19.9847 4.49964C19.9876 5.1218 19.8725 5.70419 19.6396 6.2468C19.4066 6.78942 19.0842 7.26811 18.6722 7.68288C18.2603 8.09482 17.7816 8.41726 17.2362 8.65021C16.6907 8.88317 16.1069 8.99964 15.4847 8.99964ZM26.4652 8.99964C25.8459 8.99964 25.2635 8.88317 24.718 8.65021C24.1754 8.41726 23.6967 8.09482 23.282 7.68288C22.87 7.26811 22.5462 6.78942 22.3104 6.2468C22.0774 5.70419 21.9624 5.1218 21.9652 4.49964C21.968 3.87749 22.0859 3.2951 22.3189 2.75249C22.5547 2.20987 22.8786 1.7326 23.2905 1.32067C23.7024 0.905895 24.1797 0.582031 24.7223 0.349077C25.2649 0.116122 25.8459 -0.000355244 26.4652 -0.000355244C27.0874 -0.000355244 27.6697 0.116122 28.2124 0.349077C28.7578 0.582031 29.2351 0.905895 29.6442 1.32067C30.0561 1.7326 30.3786 2.20987 30.6115 2.75249C30.8445 3.2951 30.9624 3.87749 30.9652 4.49964C30.968 5.1218 30.853 5.70419 30.62 6.2468C30.3871 6.78942 30.0646 7.26811 29.6527 7.68288C29.2408 8.09482 28.7621 8.41726 28.2166 8.65021C27.6712 8.88317 27.0874 8.99964 26.4652 8.99964ZM37.4457 8.99964C36.8263 8.99964 36.244 8.88317 35.6985 8.65021C35.1559 8.41726 34.6772 8.09482 34.2624 7.68288C33.8505 7.26811 33.5266 6.78942 33.2908 6.2468C33.0579 5.70419 32.9428 5.1218 32.9457 4.49964C32.9485 3.87749 33.0664 3.2951 33.2994 2.75249C33.5352 2.20987 33.859 1.7326 34.271 1.32067C34.6829 0.905895 35.1602 0.582031 35.7028 0.349077C36.2454 0.116122 36.8263 -0.000355244 37.4457 -0.000355244C38.0678 -0.000355244 38.6502 0.116122 39.1928 0.349077C39.7383 0.582031 40.2156 0.905895 40.6246 1.32067C41.0366 1.7326 41.359 2.20987 41.592 2.75249C41.8249 3.2951 41.9428 3.87749 41.9457 4.49964C41.9485 5.1218 41.8335 5.70419 41.6005 6.2468C41.3675 6.78942 41.0451 7.26811 40.6332 7.68288C40.2212 8.09482 39.7425 8.41726 39.1971 8.65021C38.6516 8.88317 38.0678 8.99964 37.4457 8.99964ZM48.4261 8.99964C47.8068 8.99964 47.2244 8.88317 46.679 8.65021C46.1364 8.41726 45.6577 8.09482 45.2429 7.68288C44.831 7.26811 44.5071 6.78942 44.2713 6.2468C44.0384 5.70419 43.9233 5.1218 43.9261 4.49964C43.929 3.87749 44.0469 3.2951 44.2798 2.75249C44.5156 2.20987 44.8395 1.7326 45.2514 1.32067C45.6634 0.905895 46.1406 0.582031 46.6832 0.349077C47.2259 0.116122 47.8068 -0.000355244 48.4261 -0.000355244C49.0483 -0.000355244 49.6307 0.116122 50.1733 0.349077C50.7188 0.582031 51.196 0.905895 51.6051 1.32067C52.017 1.7326 52.3395 2.20987 52.5724 2.75249C52.8054 3.2951 52.9233 3.87749 52.9261 4.49964C52.929 5.1218 52.8139 5.70419 52.581 6.2468C52.348 6.78942 52.0256 7.26811 51.6136 7.68288C51.2017 8.09482 50.723 8.41726 50.1776 8.65021C49.6321 8.88317 49.0483 8.99964 48.4261 8.99964ZM59.4066 8.99964C58.7873 8.99964 58.2049 8.88317 57.6594 8.65021C57.1168 8.41726 56.6381 8.09482 56.2234 7.68288C55.8114 7.26811 55.4876 6.78942 55.2518 6.2468C55.0188 5.70419 54.9038 5.1218 54.9066 4.49964C54.9094 3.87749 55.0273 3.2951 55.2603 2.75249C55.4961 2.20987 55.82 1.7326 56.2319 1.32067C56.6438 0.905895 57.1211 0.582031 57.6637 0.349077C58.2063 0.116122 58.7873 -0.000355244 59.4066 -0.000355244C60.0288 -0.000355244 60.6112 0.116122 61.1538 0.349077C61.6992 0.582031 62.1765 0.905895 62.5856 1.32067C62.9975 1.7326 63.32 2.20987 63.5529 2.75249C63.7859 3.2951 63.9038 3.87749 63.9066 4.49964C63.9094 5.1218 63.7944 5.70419 63.5614 6.2468C63.3285 6.78942 63.006 7.26811 62.5941 7.68288C62.1822 8.09482 61.7035 8.41726 61.158 8.65021C60.6126 8.88317 60.0288 8.99964 59.4066 8.99964ZM70.3871 8.99964C69.7678 8.99964 69.1854 8.88317 68.6399 8.65021C68.0973 8.41726 67.6186 8.09482 67.2038 7.68288C66.7919 7.26811 66.468 6.78942 66.2322 6.2468C65.9993 5.70419 65.8842 5.1218 65.8871 4.49964C65.8899 3.87749 66.0078 3.2951 66.2408 2.75249C66.4766 2.20987 66.8004 1.7326 67.2124 1.32067C67.6243 0.905895 68.1016 0.582031 68.6442 0.349077C69.1868 0.116122 69.7678 -0.000355244 70.3871 -0.000355244C71.0092 -0.000355244 71.5916 0.116122 72.1342 0.349077C72.6797 0.582031 73.157 0.905895 73.5661 1.32067C73.978 1.7326 74.3004 2.20987 74.5334 2.75249C74.7663 3.2951 74.8842 3.87749 74.8871 4.49964C74.8899 5.1218 74.7749 5.70419 74.5419 6.2468C74.3089 6.78942 73.9865 7.26811 73.5746 7.68288C73.1626 8.09482 72.6839 8.41726 72.1385 8.65021C71.593 8.88317 71.0092 8.99964 70.3871 8.99964ZM81.3675 8.99964C80.7482 8.99964 80.1658 8.88317 79.6204 8.65021C79.0778 8.41726 78.5991 8.09482 78.1843 7.68288C77.7724 7.26811 77.4485 6.78942 77.2127 6.2468C76.9798 5.70419 76.8647 5.1218 76.8675 4.49964C76.8704 3.87749 76.9883 3.2951 77.2212 2.75249C77.457 2.20987 77.7809 1.7326 78.1928 1.32067C78.6048 0.905895 79.082 0.582031 79.6246 0.349077C80.1673 0.116122 80.7482 -0.000355244 81.3675 -0.000355244C81.9897 -0.000355244 82.5721 0.116122 83.1147 0.349077C83.6602 0.582031 84.1374 0.905895 84.5465 1.32067C84.9585 1.7326 85.2809 2.20987 85.5138 2.75249C85.7468 3.2951 85.8647 3.87749 85.8675 4.49964C85.8704 5.1218 85.7553 5.70419 85.5224 6.2468C85.2894 6.78942 84.967 7.26811 84.555 7.68288C84.1431 8.09482 83.6644 8.41726 83.119 8.65021C82.5735 8.88317 81.9897 8.99964 81.3675 8.99964Z" fill="black"/>
</svg>
