<svg width="15" height="15" viewBox="0 0 15 15" fill="none" xmlns="http://www.w3.org/2000/svg">
<path fill-rule="evenodd" clip-rule="evenodd" d="M1 7.01578H7.01562H1ZM7.01562 7.01578H13.0312H7.01562ZM7.01562 7.01562V13.0312V7.01562ZM7.01562 7.01562V0.999991V7.01562Z" fill="#8F8F8F"/>
<path d="M1 6.01578C0.447715 6.01578 -2.38419e-07 6.46349 -2.38419e-07 7.01578C-2.38419e-07 7.56806 0.447715 8.01578 1 8.01578V7.01578V6.01578ZM7.01562 8.01578C7.56791 8.01578 8.01562 7.56806 8.01562 7.01578C8.01562 6.46349 7.56791 6.01578 7.01562 6.01578V7.01578V8.01578ZM7.01562 6.01578C6.46334 6.01578 6.01562 6.46349 6.01562 7.01578C6.01562 7.56806 6.46334 8.01578 7.01562 8.01578V7.01578V6.01578ZM13.0312 8.01578C13.5835 8.01578 14.0312 7.56806 14.0312 7.01578C14.0312 6.46349 13.5835 6.01578 13.0312 6.01578V7.01578V8.01578ZM8.01562 7.01562C8.01562 6.46333 7.56791 6.01562 7.01562 6.01562C6.46334 6.01562 6.01562 6.46333 6.01562 7.01562H7.01562H8.01562ZM6.01562 13.0312C6.01562 13.5835 6.46334 14.0312 7.01562 14.0312C7.56791 14.0312 8.01562 13.5835 8.01562 13.0312H7.01562H6.01562ZM6.01562 7.01562C6.01562 7.5679 6.46334 8.01562 7.01562 8.01562C7.56791 8.01562 8.01562 7.5679 8.01562 7.01562H7.01562H6.01562ZM8.01562 0.999991C8.01562 0.447707 7.56791 -8.70228e-06 7.01562 -8.70228e-06C6.46334 -8.70228e-06 6.01562 0.447707 6.01562 0.999991H7.01562H8.01562ZM1 7.01578V8.01578H7.01562V7.01578V6.01578H1V7.01578ZM7.01562 7.01578V8.01578H13.0312V7.01578V6.01578H7.01562V7.01578ZM7.01562 7.01562H6.01562V13.0312H7.01562H8.01562V7.01562H7.01562ZM7.01562 7.01562H8.01562V0.999991H7.01562H6.01562V7.01562H7.01562Z" fill="white"/>
</svg>
