<svg width="50" height="50" viewBox="0 0 50 50" fill="none" xmlns="http://www.w3.org/2000/svg">
<path d="M45 14.375C45 13.8777 44.8025 13.4008 44.4508 13.0492C44.0992 12.6975 43.6223 12.5 43.125 12.5H6.875C6.37772 12.5 5.90081 12.6975 5.54917 13.0492C5.19754 13.4008 5 13.8777 5 14.375C5 14.8723 5.19754 15.3492 5.54917 15.7008C5.90081 16.0525 6.37772 16.25 6.875 16.25H43.125C43.6223 16.25 44.0992 16.0525 44.4508 15.7008C44.8025 15.3492 45 14.8723 45 14.375ZM45 21.875C45 21.3777 44.8025 20.9008 44.4508 20.5492C44.0992 20.1975 43.6223 20 43.125 20H6.875C6.37772 20 5.90081 20.1975 5.54917 20.5492C5.19754 20.9008 5 21.3777 5 21.875C5 22.3723 5.19754 22.8492 5.54917 23.2008C5.90081 23.5525 6.37772 23.75 6.875 23.75H30.515C32.3144 22.9254 34.2706 22.499 36.25 22.5C38.2294 22.499 40.1856 22.9254 41.985 23.75H43.125C43.6223 23.75 44.0992 23.5525 44.4508 23.2008C44.8025 22.8492 45 22.3723 45 21.875ZM22.725 38.75H6.875C6.37772 38.75 5.90081 38.5525 5.54917 38.2008C5.19754 37.8492 5 37.3723 5 36.875C5 36.3777 5.19754 35.9008 5.54917 35.5492C5.90081 35.1975 6.37772 35 6.875 35H22.555C22.4439 36.2521 22.4994 37.5134 22.725 38.75ZM23.44 31.25H6.875C6.37772 31.25 5.90081 31.0525 5.54917 30.7008C5.19754 30.3492 5 29.8723 5 29.375C5 28.8777 5.19754 28.4008 5.54917 28.0492C5.90081 27.6975 6.37772 27.5 6.875 27.5H25.6425C24.7132 28.6251 23.9689 29.8909 23.4375 31.25M47.5 36.25C47.5 39.2337 46.3147 42.0952 44.2049 44.205C42.0952 46.3147 39.2337 47.5 36.25 47.5C33.2663 47.5 30.4048 46.3147 28.295 44.205C26.1853 42.0952 25 39.2337 25 36.25C25 33.2663 26.1853 30.4048 28.295 28.295C30.4048 26.1853 33.2663 25 36.25 25C39.2337 25 42.0952 26.1853 44.2049 28.295C46.3147 30.4048 47.5 33.2663 47.5 36.25ZM36.25 38.0175L39.115 40.885C39.2312 41.0012 39.3692 41.0934 39.521 41.1563C39.6729 41.2192 39.8356 41.2516 40 41.2516C40.1644 41.2516 40.3271 41.2192 40.479 41.1563C40.6308 41.0934 40.7688 41.0012 40.885 40.885C41.0012 40.7688 41.0934 40.6308 41.1563 40.479C41.2192 40.3271 41.2516 40.1644 41.2516 40C41.2516 39.8356 41.2192 39.6729 41.1563 39.521C41.0934 39.3692 41.0012 39.2312 40.885 39.115L38.0175 36.25L40.885 33.385C41.1197 33.1503 41.2516 32.8319 41.2516 32.5C41.2516 32.1681 41.1197 31.8497 40.885 31.615C40.6503 31.3803 40.3319 31.2484 40 31.2484C39.6681 31.2484 39.3497 31.3803 39.115 31.615L36.25 34.4825L33.385 31.615C33.1503 31.3803 32.8319 31.2484 32.5 31.2484C32.1681 31.2484 31.8497 31.3803 31.615 31.615C31.3803 31.8497 31.2484 32.1681 31.2484 32.5C31.2484 32.8319 31.3803 33.1503 31.615 33.385L34.4825 36.25L31.615 39.115C31.4988 39.2312 31.4066 39.3692 31.3437 39.521C31.2808 39.6729 31.2484 39.8356 31.2484 40C31.2484 40.1644 31.2808 40.3271 31.3437 40.479C31.4066 40.6308 31.4988 40.7688 31.615 40.885C31.7312 41.0012 31.8692 41.0934 32.021 41.1563C32.1729 41.2192 32.3356 41.2516 32.5 41.2516C32.6644 41.2516 32.8271 41.2192 32.979 41.1563C33.1308 41.0934 33.2688 41.0012 33.385 40.885L36.25 38.0175Z" fill="#FF0000"/>
</svg>
