<svg width="49" height="57" viewBox="0 0 49 57" fill="none" xmlns="http://www.w3.org/2000/svg">
<path d="M14.9516 2.3642C15.4328 0.95 16.7672 0 18.2766 0H30.7344C32.2438 0 33.5781 0.95 34.0594 2.3642L35 5.18182H45.5C47.4359 5.18182 49 6.72557 49 8.63636C49 10.5472 47.4359 12.0909 45.5 12.0909H3.5C1.56406 12.0909 0 10.5472 0 8.63636C0 6.72557 1.56406 5.18182 3.5 5.18182H14L14.9516 2.3642ZM3.5 17.2727H45.5V50.0909C45.5 53.9017 42.3609 57 38.5 57H10.5C6.63906 57 3.5 53.9017 3.5 50.0909V17.2727ZM13.125 24.1818C11.6703 24.1818 10.5 25.3369 10.5 26.7727V47.5C10.5 48.9358 11.6703 50.0909 13.125 50.0909C14.5797 50.0909 15.75 48.9358 15.75 47.5V26.7727C15.75 25.3369 14.5797 24.1818 13.125 24.1818ZM24.5 24.1818C23.0453 24.1818 21.875 25.3369 21.875 26.7727V47.5C21.875 48.9358 23.0453 50.0909 24.5 50.0909C25.9547 50.0909 27.125 48.9358 27.125 47.5V26.7727C27.125 25.3369 25.9547 24.1818 24.5 24.1818ZM35.875 24.1818C34.4203 24.1818 33.25 25.3369 33.25 26.7727V47.5C33.25 48.9358 34.4203 50.0909 35.875 50.0909C37.3297 50.0909 38.5 48.9358 38.5 47.5V26.7727C38.5 25.3369 37.3297 24.1818 35.875 24.1818Z" fill="#66BFA7"/>
</svg>
