<svg width="40" height="38" viewBox="0 0 40 38" fill="none" xmlns="http://www.w3.org/2000/svg">
<path d="M18.9059 3.155C19.013 2.95656 19.1718 2.79079 19.3655 2.67525C19.5591 2.55972 19.7804 2.49872 20.0059 2.49872C20.2314 2.49872 20.4527 2.55972 20.6464 2.67525C20.84 2.79079 20.9988 2.95656 21.1059 3.155L37.3559 33.155C37.4596 33.3455 37.5119 33.5598 37.5078 33.7767C37.5036 33.9935 37.443 34.2056 37.332 34.392C37.2211 34.5784 37.0635 34.7327 36.8748 34.8397C36.6861 34.9468 36.4729 35.0029 36.2559 35.0025H3.75093C3.53437 35.0026 3.32149 34.9465 3.13315 34.8396C2.94481 34.7326 2.78749 34.5786 2.67658 34.3926C2.56568 34.2066 2.50501 33.995 2.50051 33.7785C2.49601 33.5619 2.54785 33.348 2.65093 33.1575L18.9059 3.155ZM23.3009 1.965C21.8834 -0.655 18.1259 -0.655 16.7084 1.965L0.453435 31.965C0.143777 32.5361 -0.0122131 33.1778 0.000746425 33.8273C0.013706 34.4768 0.195171 35.1118 0.527362 35.6701C0.859554 36.2284 1.33108 36.6908 1.89573 37.012C2.46039 37.3332 3.0988 37.5022 3.74844 37.5025H36.2559C36.9058 37.5027 37.5445 37.3339 38.1095 37.0129C38.6745 36.6919 39.1464 36.2295 39.4789 35.6712C39.8114 35.1128 39.993 34.4776 40.0061 33.8279C40.0192 33.1782 39.8632 32.5363 39.5534 31.965L23.3009 1.965ZM21.2509 13.75C21.2509 13.4185 21.1192 13.1005 20.8848 12.8661C20.6504 12.6317 20.3325 12.5 20.0009 12.5C19.6694 12.5 19.3515 12.6317 19.1171 12.8661C18.8826 13.1005 18.7509 13.4185 18.7509 13.75V23.75C18.7509 24.0815 18.8826 24.3995 19.1171 24.6339C19.3515 24.8683 19.6694 25 20.0009 25C20.3325 25 20.6504 24.8683 20.8848 24.6339C21.1192 24.3995 21.2509 24.0815 21.2509 23.75V13.75ZM21.8759 29.375C21.8759 29.8723 21.6784 30.3492 21.3268 30.7008C20.9751 31.0525 20.4982 31.25 20.0009 31.25C19.5037 31.25 19.0267 31.0525 18.6751 30.7008C18.3235 30.3492 18.1259 29.8723 18.1259 29.375C18.1259 28.8777 18.3235 28.4008 18.6751 28.0492C19.0267 27.6975 19.5037 27.5 20.0009 27.5C20.4982 27.5 20.9751 27.6975 21.3268 28.0492C21.6784 28.4008 21.8759 28.8777 21.8759 29.375Z" fill="#66BFA7"/>
</svg>
